<?xml version="1.0" encoding="UTF-8" standalone="no"?>
<svg
   version="1.0"
   width="1276.000000pt"
   height="1280.000000pt"
   viewBox="0 0 1276.000000 1280.000000"
   preserveAspectRatio="xMidYMid meet"
   id="svg12"
   sodipodi:docname="Tierra3.svg"
   inkscape:version="1.2.1 (9c6d41e410, 2022-07-14)"
   xmlns:inkscape="http://www.inkscape.org/namespaces/inkscape"
   xmlns:sodipodi="http://sodipodi.sourceforge.net/DTD/sodipodi-0.dtd"
   xmlns="http://www.w3.org/2000/svg"
   xmlns:svg="http://www.w3.org/2000/svg">
  <defs
     id="defs16" />
  <sodipodi:namedview
     id="namedview14"
     pagecolor="#ffffff"
     bordercolor="#000000"
     borderopacity="0.25"
     inkscape:showpageshadow="2"
     inkscape:pageopacity="0.0"
     inkscape:pagecheckerboard="0"
     inkscape:deskcolor="#d1d1d1"
     inkscape:document-units="pt"
     showgrid="false"
     showguides="false"
     inkscape:zoom="0.47695313"
     inkscape:cx="851.23669"
     inkscape:cy="141.52334"
     inkscape:window-width="1920"
     inkscape:window-height="1001"
     inkscape:window-x="-9"
     inkscape:window-y="-9"
     inkscape:window-maximized="1"
     inkscape:current-layer="svg12" />
  <metadata
     id="metadata2">
Created by potrace 1.15, written by Peter Selinger 2001-2017
</metadata>
  <g
     transform="matrix(0.05197571,0,0,-0.05347693,-344.69661,342.33178)"
     fill="#000000"
     stroke="none"
     id="g10"
     style="fill:#008000">
    <path
       d="M 6085,12793 C 5305,12748 4664,12608 4000,12340 2828,11866 1827,11058 1108,10005 563,9207 202,8277 65,7316 17,6978 6,6797 6,6395 6,5999 17,5828 66,5490 328,3644 1384,2003 2958,997 3836,436 4801,112 5880,18 c 218,-19 821,-16 1045,5 438,42 832,116 1215,227 1708,494 3133,1684 3930,3280 224,450 349,786 495,1340 145,548 189,888 189,1460 1,415 -22,698 -90,1105 -226,1363 -858,2582 -1836,3540 -774,760 -1678,1286 -2723,1585 -548,157 -744,190 -1390,230 -137,9 -508,11 -630,3 z m 522,-43 h 63 l -51,-96 c -51,-95 -52,-96 -62,-225 -6,-76 -6,-134 -1,-139 10,-10 176,-61 181,-56 2,2 11,42 20,89 16,81 20,90 64,133 l 47,46 319,-142 c 175,-79 365,-166 423,-195 l 105,-52 263,21 262,22 73,72 c 40,40 75,72 79,72 3,0 174,-81 380,-180 l 373,-180 h 168 169 l 96,-57 c 296,-173 640,-420 922,-662 113,-97 322,-293 317,-297 -2,-2 -79,25 -173,60 -408,152 -682,286 -817,398 l -48,40 -371,29 -372,30 -83,-83 c -46,-45 -83,-89 -83,-98 1,-8 18,-55 39,-105 l 38,-90 71,-3 c 40,-2 72,-6 73,-10 0,-4 6,-63 13,-132 7,-69 12,-126 12,-127 -1,-1 -55,30 -120,69 -93,55 -120,68 -127,57 -5,-8 -41,-72 -81,-142 -63,-112 -75,-127 -93,-122 -11,4 -47,9 -80,12 -33,2 -69,8 -80,13 -11,5 -31,10 -45,12 -18,2 -30,14 -43,41 -20,41 -27,42 -108,27 -36,-7 -63,-20 -84,-40 l -30,-29 -45,34 c -43,33 -49,35 -128,35 -89,0 -84,3 -106,-67 -6,-19 -2,-22 44,-28 l 50,-7 -45,-56 c -41,-53 -43,-58 -30,-79 21,-31 20,-33 -23,-33 -49,0 -171,31 -256,65 -74,30 -154,34 -206,12 -42,-17 -103,-76 -234,-225 l -99,-114 79,-79 79,-79 h 57 c 32,0 92,-10 133,-22 64,-19 76,-26 84,-50 11,-32 24,-33 204,-21 l 98,6 117,93 c 123,99 123,99 283,126 65,11 66,11 173,-32 98,-39 112,-42 164,-36 154,18 175,19 168,8 -10,-16 21,-82 80,-172 27,-41 72,-130 100,-196 29,-67 75,-155 102,-197 45,-66 52,-83 59,-148 8,-71 9,-74 33,-72 14,2 80,-2 148,-8 68,-6 125,-9 128,-6 3,2 -12,31 -32,63 -27,44 -55,71 -110,108 -61,42 -75,57 -90,95 -9,25 -48,126 -86,224 -39,98 -68,180 -66,181 1,2 23,11 48,20 52,20 51,21 100,-74 16,-30 51,-89 79,-129 49,-74 52,-76 168,-135 l 118,-61 5,-86 c 8,-130 24,-150 170,-204 l 115,-42 85,45 c 121,64 122,65 149,115 l 25,45 -42,56 -43,56 h 109 110 l 85,-93 c 83,-90 88,-94 231,-165 118,-58 146,-76 142,-90 -2,-9 -7,-44 -11,-76 l -7,-59 88,-88 88,-89 -34,-35 c -19,-19 -37,-35 -42,-35 -23,0 -402,177 -515,241 l -132,74 -223,-12 c -123,-7 -242,-15 -264,-18 l -41,-6 4,-92 c 2,-51 6,-102 8,-113 3,-15 56,-55 168,-128 132,-86 197,-120 340,-180 154,-64 447,-221 463,-247 3,-5 0,-55 -6,-111 -11,-94 -17,-112 -64,-200 -28,-54 -54,-98 -59,-98 -4,0 -43,24 -87,53 -55,37 -134,110 -262,243 l -183,189 -51,1 c -49,0 -55,3 -207,123 l -157,122 -72,-3 -72,-3 -21,-85 -21,-85 -35,3 c -64,6 -69,10 -70,55 0,23 -3,50 -7,59 -4,9 -135,112 -292,228 -157,116 -284,214 -283,216 0,3 30,38 66,78 63,70 68,74 146,96 45,12 81,26 81,30 0,3 -21,38 -48,76 l -47,69 -54,3 c -49,3 -65,11 -172,85 l -119,81 -115,-28 -115,-28 -72,58 c -39,33 -106,88 -147,122 l -76,64 -97,-6 c -147,-8 -290,14 -423,64 l -110,42 -135,-12 -135,-12 -145,-102 -145,-102 -135,-23 c -123,-20 -141,-26 -205,-66 -38,-24 -104,-53 -145,-65 -70,-20 -77,-25 -115,-76 l -40,-55 -126,6 -125,6 -135,-121 c -86,-78 -136,-131 -141,-148 -4,-15 -23,-99 -44,-188 l -37,-160 -132,-140 c -128,-135 -132,-141 -148,-206 -10,-39 -17,-107 -17,-162 0,-91 2,-101 50,-221 64,-161 146,-325 328,-658 l 147,-267 57,-35 c 54,-32 67,-35 166,-41 l 107,-7 138,-109 c 97,-75 147,-108 165,-108 15,0 117,-7 227,-15 110,-8 205,-15 210,-15 6,0 26,-25 45,-56 l 34,-56 52,7 52,6 92,-107 93,-106 41,5 c 23,3 59,9 82,12 l 40,7 26,-179 25,-178 -63,-89 c -35,-49 -97,-118 -137,-153 l -74,-64 29,-167 c 15,-93 39,-302 52,-470 25,-302 25,-302 5,-372 -38,-137 -38,-137 -169,-224 l -119,-79 -143,-426 -142,-426 44,-217 44,-217 -28,-187 -28,-188 -88,-115 -88,-116 -7,-114 c -5,-77 -15,-137 -30,-182 l -23,-67 88,-26 88,-26 100,45 99,45 h 124 124 l 208,-67 209,-67 131,66 c 73,37 230,125 349,196 l 217,129 107,11 c 59,7 111,17 115,23 3,6 12,84 20,172 l 13,161 57,66 58,67 98,12 c 157,20 163,22 262,105 l 92,76 h 78 78 l 279,250 c 314,282 288,245 319,450 9,58 26,153 39,212 23,106 24,108 131,266 l 107,159 67,7 c 36,3 83,6 105,6 24,0 81,19 155,51 98,44 150,77 341,217 l 226,165 74,126 c 133,227 180,309 180,318 0,5 -34,21 -75,36 l -75,26 -38,-40 -37,-40 -93,75 c -117,95 -111,91 -120,65 -6,-14 -12,21 -20,111 -8,88 -9,138 -2,150 23,44 12,74 -53,142 -73,75 -113,151 -182,338 -43,116 -47,137 -61,291 -12,138 -12,177 -1,230 8,43 11,99 6,169 -6,109 -2,444 7,516 l 5,41 75,-17 c 41,-10 78,-21 81,-24 4,-4 -4,-109 -18,-234 l -25,-227 48,-104 48,-103 v -177 c 0,-268 18,-395 80,-579 l 52,-152 121,-153 c 66,-83 121,-154 123,-155 1,-2 27,15 57,37 53,41 54,41 143,41 l 89,1 285,315 285,315 17,82 c 9,45 17,89 18,98 0,18 -61,105 -203,289 -104,134 -110,137 -193,77 -30,-21 -58,-36 -62,-33 -3,4 -11,47 -18,97 -10,75 -20,103 -56,167 -36,63 -48,76 -65,74 -15,-2 -28,6 -39,23 -14,21 -15,40 -10,113 4,48 13,114 19,146 12,59 12,60 75,94 35,19 64,33 66,31 10,-14 110,-299 128,-368 l 23,-84 135,-116 c 74,-64 207,-185 295,-270 l 159,-154 44,-141 c 25,-77 59,-211 76,-296 l 32,-155 69,-27 70,-26 -3,-199 c -2,-109 -15,-373 -28,-587 -14,-214 -24,-390 -22,-391 2,-1 22,-12 46,-24 23,-12 42,-26 42,-31 0,-31 -108,-393 -166,-556 C 12101,3597 11756,2978 11303,2412 10364,1240 9034,438 7565,156 7166,80 6815,48 6375,48 5915,48 5558,82 5144,165 l -162,32 -95,99 c -52,55 -105,112 -118,127 -25,29 -40,34 -1434,469 l -260,81 -170,112 C 2178,1563 1567,2175 1087,2906 l -106,161 -52,368 c -51,367 -52,368 -89,434 -21,36 -50,109 -66,160 l -28,94 17,136 c 12,99 21,139 33,146 8,6 43,28 77,50 l 61,40 -2,55 c -1,30 -5,105 -8,165 l -5,110 105,77 106,78 v 107 108 l 241,315 c 132,173 244,319 249,324 6,6 46,-2 102,-19 l 93,-27 39,44 c 25,27 141,231 301,528 l 261,484 144,29 144,29 41,46 c 80,91 77,84 65,157 -9,53 -28,100 -98,230 l -87,162 -120,75 -120,75 -3,185 -2,184 -178,95 -177,94 2,244 3,244 40,74 41,74 -40,66 c -38,63 -46,70 -148,127 l -108,61 -24,105 -24,105 17,182 c 10,100 14,188 9,196 -12,20 -224,297 -227,297 -2,0 -72,-27 -155,-60 -148,-58 -155,-60 -247,-60 -52,0 -94,2 -94,5 0,11 141,215 242,350 332,445 743,865 1177,1203 185,144 174,139 301,141 85,2 151,-5 290,-30 l 181,-32 37,36 c 22,21 47,62 60,97 18,46 43,81 101,142 l 77,81 83,5 c 72,4 91,9 139,38 66,40 192,90 259,103 27,6 181,20 343,32 l 295,21 31,30 c 17,16 53,56 80,89 48,58 50,59 99,59 69,-1 194,-18 227,-31 15,-6 29,-22 33,-37 3,-14 16,-39 27,-55 16,-22 19,-39 16,-77 -5,-44 -3,-48 12,-40 10,5 62,56 115,112 87,93 105,119 184,268 l 88,165 69,7 c 38,4 103,10 145,13 l 76,6 46,82 47,82 -43,6 -42,6 50,3 c 208,12 399,17 505,14 69,-2 153,-4 187,-4 z M 223,7247 c 37,-149 87,-376 111,-503 l 44,-231 -8,-219 -8,-219 94,-171 c 52,-93 94,-175 94,-182 0,-6 -21,-85 -46,-174 l -46,-163 -11,-300 -10,-301 61,-174 c 64,-181 87,-284 156,-696 l 32,-192 60,-98 c 45,-74 74,-140 120,-276 34,-99 58,-176 53,-171 -14,15 -137,240 -207,380 -346,692 -555,1420 -637,2218 -43,416 -37,982 15,1400 23,178 51,345 59,345 3,0 37,-123 74,-273 z"
       id="path4"
       style="fill:#008000" />
    <path
       d="m 8225,11360 10,-130 -85,-97 c -59,-67 -95,-118 -113,-162 -15,-35 -26,-65 -24,-67 4,-5 461,17 466,22 7,6 -39,152 -79,254 -21,52 -43,131 -50,175 -7,44 -16,86 -20,94 -7,13 -78,40 -105,41 -7,0 -7,-42 0,-130 z"
       id="path6"
       style="fill:#008000" />
    <path
       d="m 9968,3259 -137,-110 -163,-11 -163,-11 -87,-66 c -85,-64 -88,-68 -118,-146 -30,-77 -36,-84 -136,-173 -106,-95 -138,-112 -206,-112 -42,0 -45,-5 -22,-38 15,-21 13,-25 -45,-90 l -61,-67 v -82 c 0,-83 0,-83 26,-83 33,0 335,30 350,35 6,2 139,146 295,320 156,175 302,338 324,362 37,41 46,45 110,55 69,11 71,11 153,92 45,44 82,85 82,91 0,17 -51,145 -58,145 -4,-1 -69,-50 -144,-111 z"
       id="path8"
       style="fill:#008000" />
  </g>
  <path
     style="fill:#000080;stroke:#ff2a2a;stroke-width:0.829029"
     d="m -34.93664,338.80561 c -9.23043,-0.5583 -26.94791,-2.86811 -38.62881,-5.03613 l -12.06629,-2.23958 -5.71737,-6.51477 -5.71739,-6.51477 -12.45676,-4.25439 c -6.85121,-2.33992 -26.58832,-8.79 -43.86023,-14.33349 -30.15493,-9.67839 -31.68217,-10.26909 -38.4135,-14.85797 -9.56371,-6.51982 -26.95101,-19.8724 -34.38987,-26.40971 -22.29665,-19.59446 -45.2053,-46.45891 -62.44217,-73.22454 l -4.65521,-7.22869 -2.73587,-19.74482 c -2.14156,-15.45562 -3.1738,-20.64423 -4.7518,-23.88517 -4.10903,-8.43919 -4.88016,-12.2355 -3.92323,-19.31431 0.47892,-3.54271 1.07188,-6.77612 1.31771,-7.18533 0.24582,-0.40926 2.10563,-1.91827 4.13289,-3.35332 l 3.68593,-2.60925 -0.56604,-8.694058 -0.56603,-8.69411 5.42015,-4.04438 5.42014,-4.04438 v -5.71775 -5.71779 l 12.80059,-17.20703 c 7.04032,-9.46387 13.20078,-17.20294 13.68992,-17.19793 0.48913,0.005 2.69169,0.57168 4.8946,1.25925 3.10563,0.96936 4.26714,1.02656 5.17105,0.25471 1.61765,-1.38132 8.11136,-12.91788 19.79069,-35.1596501 5.46442,-10.4063299 10.37702,-19.3410609 10.91687,-19.8549949 0.53984,-0.51391 4.10776,-1.551844 7.92867,-2.306518 7.09478,-1.401294 8.06785,-2.031942 11.86687,-7.690968 1.63255,-2.431855 0.37014,-7.230823 -4.5626,-17.34438 -4.06357,-8.331456 -4.1862,-8.478064 -10.61152,-12.685903 l -6.50045,-4.257025 v -9.802729 -9.802716 l -9.19472,-5.07254 -9.19472,-5.07254 0.10504,-13.066448 c 0.10027,-12.47126 0.20225,-13.23711 2.23922,-16.81332 l 2.13418,-3.74688 -2.37634,-3.85534 c -1.72244,-2.79443 -3.85267,-4.70479 -7.74128,-6.94223 -5.62829,-3.23843 -5.73977,-3.41772 -7.42214,-11.93621 -0.29004,-1.46861 -0.12944,-7.06955 0.35689,-12.44653 l 0.88423,-9.77633 -6.20543,-8.32942 -6.20542,-8.32943 -4.23065,1.74401 c -9.30471,3.83569 -13.55777,5.00284 -17.30577,4.74913 l -3.83589,-0.25966 6.35098,-9.25006 c 12.52363,-18.2404 26.71144,-35.23871 42.11265,-50.4549 9.73128,-9.61435 24.0535,-22.07159 30.6962,-26.69905 4.20076,-2.92634 4.9475,-3.15153 10.36977,-3.127 3.21367,0.0145 9.88615,0.74679 14.82774,1.62721 10.35623,1.84514 10.55095,1.77441 13.91718,-5.05522 1.03611,-2.10211 3.60497,-5.79163 5.70856,-8.19892 3.40676,-3.89857 4.18424,-4.37687 7.1146,-4.37687 2.06155,0 5.92397,-1.21643 10.34494,-3.25801 9.01977,-4.16529 12.10175,-4.79485 29.79319,-6.08584 l 14.56503,-1.06286 4.64172,-4.95136 4.64172,-4.95136 4.49521,0.51811 c 2.47235,0.28495 5.48468,0.71715 6.69406,0.96045 2.74514,0.55224 5.56556,5.21873 5.56556,9.20841 0,1.59232 0.33146,2.89513 0.73658,2.89513 2.07665,0 12.25227,-12.99373 16.29977,-20.81395 4.67464,-9.03195 5.21541,-9.45898 11.97811,-9.45898 6.15652,0 7.7565,-0.85192 10.29643,-5.48242 1.88993,-3.4455 2.97034,-4.52148 4.9489,-4.92862 3.62107,-0.74514 33.5826097,-0.64604 33.20911972,0.10983 -3.77815002,7.64642 -4.67153002,10.54281 -5.18678002,16.81593 l -0.56964,6.93517 2.76159,1.16794 c 1.51886002,0.64237 3.91539,1.42095 5.3256,1.73018 2.53731,0.55637 2.57452,0.51576 3.57134,-3.89855 0.6282,-2.78181 1.9203,-5.45392 3.4329603,-7.09943 l 2.42563,-2.63866 13.61843,6.3006 c 7.49015,3.46533 17.33165,8.09923 21.86998,10.29755 l 8.25158,3.99693 13.81578,-1.19928 13.81577,-1.19927 3.74471,-3.76589 3.7447,-3.76591 19.81031,9.70979 19.81032,9.70979 h 8.65345 8.65344 l 8.24832,5.16671 c 9.0847,5.69066 26.52988,18.25897 34.81081,25.07936 7.7653,6.3957 23.80903,21.21988 23.40997,21.63047 -0.60441,0.62184 -20.22277,-7.33478 -30.35706,-12.31194 -5.39427,-2.64922 -12.38226,-6.64574 -15.52887,-8.88118 l -5.72116,-4.06443 -19.12953,-1.58906 -19.1295,-1.58906 -4.3681,4.43844 c -2.40249,2.44115 -4.36815,5.00408 -4.36815,5.69538 0,0.69131 0.82568,3.44773 1.8348,6.12536 l 1.83479,4.86843 h 3.769 3.76903 l 0.54282,6.00927 c 0.29856,3.30509 0.3973,6.15899 0.21943,6.342 -0.17787,0.18301 -2.54602,-1.00752 -5.2625,-2.6456 -2.71653,-1.6381 -5.42892,-2.97582 -6.02757,-2.97271 -0.59863,0.003 -2.44481,2.55737 -4.10263,5.67616 -4.83698,9.09968 -4.34324,8.73443 -10.47141,7.7464 -4.05655,-0.65404 -5.7585,-1.37311 -7.19903,-3.04163 -1.64344,-1.90349 -2.35871,-2.13035 -5.55,-1.76025 -2.01489,0.23366 -4.34288,1.05746 -5.17327,1.83066 -1.4152,1.31776 -1.68191,1.29785 -4.25771,-0.31787 -3.71539,-2.33056 -10.11196,-2.38909 -11.30086,-0.10341 -1.40443,2.70001 -0.9899,4.13014 1.2795,4.41423 l 2.12556,0.26608 -1.71691,2.23493 c -0.9443,1.2292 -1.71691,3.02666 -1.71691,3.99434 0,2.37641 -2.37794,2.30039 -10.38955,-0.33212 -7.95848,-2.61507 -13.43249,-2.73836 -16.65805,-0.37522 -1.30461,0.95579 -5.35436,5.16014 -8.99946,9.34298 l -6.62743,7.60518 4.35017,4.53211 c 3.4043,3.54668 4.90154,4.53211 6.886,4.53211 3.71748,0 11.01946,2.42237 11.54435,3.82973 0.35123,0.94168 2.19397,1.21576 8.17405,1.21576 h 7.72057 l 5.47324,-4.51224 c 6.79535,-5.60222 7.62925,-6.04496 13.48291,-7.15832 4.30605,-0.81901 5.22621,-0.70581 10.21237,1.25619 4.66129,1.8342 6.3361,2.08634 11.21151,1.68789 l 5.73161,-0.46841 1.72132,3.54631 c 4.58484,9.44582 12.8477,25.68938 14.28488,28.08198 0.88656,1.4759 1.88254,4.31463 2.21334,6.30828 0.70144,4.22741 1.66577,4.6325 11.41574,4.79542 5.9105,0.0988 5.94761,0.0856 5.04923,-1.79256 -0.49779,-1.04064 -3.26371,-4.16253 -6.14653,-6.93755 -5.02915,-4.84108 -5.40342,-5.48839 -9.23735,-15.97739 l -3.99587,-10.93188 2.10677,-0.75778 c 1.66713,-0.59963 2.28527,-0.44445 2.96219,0.74369 0.47047,0.8258 2.59431,4.28769 4.71968,7.69307 3.56145,5.70639 4.34612,6.43691 10.01204,9.32147 l 6.14774,3.12985 v 3.47422 c 0,7.63913 1.77056,9.69624 11.22664,13.04357 l 4.42202,1.56534 5.3113,-3.12933 c 2.92122,-1.72114 6.02308,-4.30473 6.89303,-5.74133 1.56821,-2.58963 1.5677,-2.63033 -0.0587,-4.75766 -0.90228,-1.18013 -1.64047,-2.36981 -1.64047,-2.64374 0,-0.27393 2.07207,-0.49805 4.60461,-0.49805 4.56289,0 4.65746,0.0514 10.44567,5.67617 3.85639,3.74751 7.87658,6.67522 11.83159,8.61641 l 5.99046,2.94021 -0.48334,4.19907 c -0.48264,4.1925 -0.47632,4.20637 4.02472,8.88626 4.40802,4.58315 4.47296,4.71988 2.92617,6.16014 -1.51515,1.41081 -1.83534,1.36215 -7.58828,-1.15295 -3.30351,-1.44426 -10.95848,-5.26987 -17.01107,-8.50135 l -11.00471,-5.87542 -12.14926,0.87808 c -6.6821,0.48294 -12.85561,0.87808 -13.7189,0.87808 -1.38355,0 -1.5696,0.63452 -1.5696,5.35254 0,4.12154 0.38506,5.85622 1.67435,7.54258 2.47732,3.24039 15.038,10.93638 26.80146,16.42138 5.69051,2.65334 13.05967,6.45852 16.37597,8.45595 l 6.02959,3.6317 -0.41711,5.34662 c -0.37567,4.815078 -3.18251,12.370508 -5.56524,14.980458 -1.25887,1.3789 -7.48446,-3.69391 -17.58889,-14.331938 -8.36073,-8.80226 -10.2595,-10.39904 -12.36569,-10.39904 -1.85724,0 -4.63778,-1.70249 -10.96397,-6.71312 -6.38908,-5.06045 -9.07929,-6.70206 -10.92757,-6.66821 -4.29237,0.0786 -5.62348,1.10443 -6.55222,5.04942 -0.73352,3.11591 -1.22091,3.74885 -3.05718,3.97014 -1.82268,0.21963 -2.26508,-0.12866 -2.67041,-2.10229 -0.26723,-1.30105 -0.77262,-2.93317 -1.12311,-3.62692 -0.51428,-1.01806 -20.92078,-17.52733 -27.46251,-22.21778 -1.58204,-1.13433 -1.51787,-1.29578 1.99575,-5.02006 2.33668,-2.47678 5.03076,-4.32659 7.56009,-5.19097 2.16138,-0.73861 3.92975,-1.55665 3.92975,-1.81787 0,-0.26121 -1.01142,-2.13041 -2.24761,-4.15376 -1.84598,-3.02147 -2.80833,-3.77234 -5.38557,-4.20202 -1.72584,-0.28775 -5.94753,-2.41027 -9.38147,-4.71671 l -6.24352,-4.19354 -5.9703,1.44815 -5.97033,1.44816 -3.4463,-2.91449 c -1.89545,-1.60296 -5.2261,-4.43173 -7.40139,-6.28616 l -3.95514,-3.37169 -9.93911,-0.37947 c -8.03192,-0.30666 -11.1272,-0.80975 -16.13042,-2.62177 -3.93655,-1.4257 -7.80593,-2.22403 -10.62501,-2.19216 -8.64467,0.0977 -11.41724,1.05077 -18.73665,6.44048 -6.2467803,4.59986 -7.6383803,5.2487 -13.8040703,6.43617 -3.77132,0.72632 -8.92036,2.41514 -11.4423197,3.75292 -2.52195,1.33778 -5.9601,2.89009 -7.64031,3.44959 -1.68022,0.55948 -4.12884,2.3577 -5.44137,3.99602 l -2.38643,2.97878 -6.52683,-0.30763 -6.52681,-0.30764 -6.97309,6.52323 -6.97309,6.52323 -2.2299,9.86602 -2.2299,9.86604 -6.61732,7.34361 c -3.63953,4.03899 -7.05629,8.58379 -7.59282,10.09956 -0.53653,1.51577 -0.99627,5.7187 -1.02163,9.33983 -0.0365,5.208008 0.40361,7.756148 2.10593,12.193268 2.8074,7.31747 10.26265,22.720742 18.43254,38.083449 7.52178,14.144024 8.83915,15.324278 18.23755,16.339378 5.29904,0.572331 6.14056,0.955368 11.40532,5.191452 7.90377,6.359472 8.751,6.695986 18.4264497,7.318876 13.8893503,0.894176 14.6342403,1.09341 16.5448703,4.42522 1.50051,2.616632 1.95382,2.872755 4.2873,2.422361 2.42069,-0.467245 2.97002,-0.08616 7.59642,5.26973 l 4.98706,5.7733979 3.92922,-0.62413 c 2.16107,-0.34327 4.02491,-0.535 4.14186,-0.42607 0.11696,0.10894 0.78972,4.2247 1.49501,9.14616004 l 1.28237,8.94808016 -1.86517,2.7460899 c -1.02584,1.51033 -4.20912,5.26582 -7.07394,8.34552 l -5.2088,5.59947 1.2966,8.69609 c 1.50136,10.06939 3.73147,33.62803 3.73147,39.41882 0,4.78489 -1.87108,10.57849 -4.26209,13.19712 -0.96519,1.05708 -3.89163,3.33832 -6.50315,5.06941 l -4.74826,3.14745 -7.4573903,22.994948 -7.45739998,22.9949 2.26223998,11.7747 2.26224,11.7747 -1.42745,9.79886 c -1.41944,9.74389 -1.45247,9.83253 -5.88667,15.79766 -4.30004,5.7847 -4.48461,6.24994 -5.1712,13.03421 -0.39161,3.86946 -1.10897,8.10062 -1.59416,9.40264 -1.3056797,3.50381 -1.2128,3.66556 2.94134,5.12191 5.04070002,1.76715 5.86626002,1.71064 11.01124,-0.75366 3.58799,-1.71854 5.6358203,-2.09555 11.4193603,-2.10229 6.01648,-0.007 8.58311,0.49694 17.54653,3.44526 l 10.49918,3.45347 5.33811,-2.6972 c 2.93599,-1.4835 11.22274,-6.21088 18.41507,-10.50529 11.14549,-6.65478 13.80124,-7.89628 17.98078,-8.40553 2.69712,-0.3286 5.33567,-0.9619 5.86345,-1.4073 0.53561,-0.45205 1.21421,-4.50546 1.53592,-9.17412 0.56251,-8.16364 0.65186,-8.45249 3.72409,-12.04357 2.96811,-3.46931 3.46353,-3.71398 8.68043,-4.28608 6.42602,-0.70472 7.24445,-1.0701 13.43241,-5.99689 4.01864,-3.1996 5.1571,-3.68674 8.61565,-3.68674 h 3.9851 l 13.63279,-12.60926 c 7.49803,-6.93506 14.19963,-13.73697 14.89237,-15.11534 0.69278,-1.37839 1.9763,-6.81959 2.8523,-12.09159 2.09632,-12.61625 2.87241,-14.71364 8.79538,-23.76903 l 5.0131,-7.664418 5.97887,-0.60615 c 8.17089,-0.82838 14.85362,-4.20204 28.98448,-14.63229 l 11.5631,-8.53496 6.62202,-11.72694 c 3.64207,-6.44982 6.62199,-12.08499 6.62199,-12.5226 0,-0.80896 -5.78544,-3.50101 -7.52398,-3.50101 -0.52384,0 -1.76655,0.78694 -2.76159,1.74874 l -1.80918,1.74874 -5.81531,-4.48171 -5.8153,-4.48171 0.10914,-7.72187 0.10915,-7.72187 -3.68678,-4.89185 c -5.5717,-7.3929399 -9.5197,-16.70174006 -11.25973,-26.548895 -0.97653,-5.526191 -1.16061,-44.937688 -0.24383,-52.204717 l 0.51292,-4.065825 2.95041,0.557372 c 1.6227,0.306558 3.27545,0.881338 3.67279,1.277269 0.41769,0.416197 0.19947,5.798441 -0.51722,12.75852 l -1.23961,12.038616 2.11413,4.204573 c 1.92197,3.822383 2.20318,5.695154 3.09356,20.602418 0.89958,15.06098894 1.21822,17.1519589 3.90827,25.647899 2.65783,8.39398 3.50408,9.9894 9.14393,17.23875 3.41828,4.39379 6.33719,8.11693 6.48653,8.27368 0.1493,0.15674 1.67271,-0.69468 3.38534,-1.89206 2.41632,-1.68936 4.12415,-2.17821 7.62366,-2.18227 l 4.5098,-0.005 14.71158,-16.76872 c 11.74911,-13.3920301 14.90402,-17.4973201 15.6674,-20.3869501 1.75625,-6.6478639 1.4686,-7.5963139 -5.02752,-16.5771309 -9.33618,-12.907154 -10.41102,-13.627247 -15.1539,-10.152472 -2.61711,1.917363 -2.57907,1.965638 -3.65634,-4.638823 -0.73313,-4.494664 -4.1298,-10.786765 -6.36876,-11.797758 -1.58243,-0.714533 -1.80252,-1.443153 -1.77036,-5.861455 0.0603,-8.300447 0.89417,-11.027536 3.96971,-12.983234 1.49877,-0.953028 2.91915,-1.732774 3.15648,-1.732774 0.23732,0 2.17966,5.440986 4.31629,12.091076 l 3.88485,12.091092 4.98628,4.399032 c 2.74244,2.419456 9.60616,8.863144 15.25271,14.319269 l 10.26648,9.920236 2.59264,9.5387519 c 1.42596,5.24632 3.16034,12.3555202 3.85417,15.7982302 0.69384,3.4427099 1.34354,6.3143199 1.44377,6.3813499 0.10026,0.0671 1.65345,0.71376 3.45153,1.43717 l 3.26924,1.31531 -0.27631,13.74667 c -0.15194,7.56068 -0.71476,21.66405 -1.25068,31.34087 l -0.97439,17.59412 2.26713,1.32644 c 1.24696,0.72952 2.26949,1.59525 2.27233,1.92377 0.005,0.32856 -1.84293,6.90237 -4.1017,14.6085 C 261.71986,232.39777 145.98295,328.26435 11.24125,338.51157 c -10.48046028,0.79708 -35.2528,0.95477 -46.17793,0.29407 z m 161.3192,-118.47762 c 8.65415,-0.67534 6.27915,1.29299 26.96429,-22.34725 14.18618,-16.21281 15.43051,-17.41271 18.63505,-17.96977 2.56539,-0.44596 4.5323,-1.66575 7.77699,-4.82311 2.38876,-2.32444 4.34315,-4.73126 4.34315,-5.3486 0,-1.7554 -2.55448,-7.88373 -3.28616,-7.88373 -0.36121,0 -3.87527,2.60788 -7.809,5.79532 l -7.15218,5.79529 -8.52032,0.59752 c -8.43917,0.59182 -8.56052,0.63093 -12.73933,4.10354 -2.83499,2.35588 -4.93896,5.05381 -6.41364,8.22432 -2.86543,6.16042 -11.4523,13.90385 -16.30339,14.70196 -2.78548,0.45827 -3.22527,0.80094 -2.86204,2.23003 0.28589,1.12481 -0.51086,2.86882 -2.38666,5.2241 -2.37263,2.97913 -2.81581,4.19474 -2.81581,7.72362 0,4.8809 0.41258,5.51393 3.22984,4.95566 1.14547,-0.22696 5.3481,-0.66747 9.33921,-0.9789 z m -34.0226,-461.68396 c 5.02374,-0.52538 4.99696,0.0828 0.55767,-12.65933 -1.47675,-4.23869 -2.94063,-9.4606 -3.25307,-11.60425 -0.5809,-3.98563 -2.07983,-6.33694 -4.03972,-6.33694 -0.60543,0 -1.71999,-0.2445 -2.47686,-0.54333 -1.25061,-0.49377 -1.32301,0.11303 -0.79359,6.65217 l 0.58258,7.19548 -4.19016,5.18039 c -3.9515,4.88538 -7.43336,10.74807 -7.43336,12.51626 0,0.77664 11.9685,0.54891 21.04651,-0.40045 z"
     id="path316" />
  <path
     style="fill:#000080;stroke:#ff2a2a;stroke-width:0.829029"
     d="m -306.54183,153.00558 c -26.03462,-53.517738 -37.56836,-109.568988 -34.84203,-169.323972 0.43259,-9.481315 0.95225,-18.37399 1.1548,-19.761503 0.20257,-1.387506 0.98482,-6.98117 1.73835,-12.430378 0.75353,-5.449199 1.47202,-9.800938 1.59665,-9.670521 0.48243,0.504818 6.18707,25.242976 8.58695,37.237368 2.23893,11.1899279 2.51323,14.1105379 2.43014,25.8742879 l -0.0937,13.2605601 4.687,8.99038 4.68701,8.99038 -2.34793,9.28336 c -1.98027,7.82963 -2.44126,11.71951 -2.94386,24.84026 l -0.59592,15.55694 3.53392,11.35237 c 2.18655,7.024048 4.71233,18.085198 6.62473,29.011538 2.67357,15.27525 3.451,18.28361 5.75882,22.28427 2.84583,4.93329 7.147,15.92352 6.49458,16.59477 -0.21556,0.22178 -3.12686,-5.21874 -6.46955,-12.09011 z"
     id="path318" />
</svg>
