<?xml version="1.0" encoding="UTF-8" standalone="no"?>
<!-- Created with Inkscape (http://www.inkscape.org/) -->

<svg
   width="297mm"
   height="210mm"
   viewBox="0 0 297 210"
   version="1.1"
   id="svg5"
   sodipodi:docname="Tierra1.svg"
   inkscape:version="1.2.1 (9c6d41e410, 2022-07-14)"
   xmlns:inkscape="http://www.inkscape.org/namespaces/inkscape"
   xmlns:sodipodi="http://sodipodi.sourceforge.net/DTD/sodipodi-0.dtd"
   xmlns:xlink="http://www.w3.org/1999/xlink"
   xmlns="http://www.w3.org/2000/svg"
   xmlns:svg="http://www.w3.org/2000/svg">
  <sodipodi:namedview
     id="namedview192"
     pagecolor="#ffffff"
     bordercolor="#000000"
     borderopacity="0.25"
     inkscape:showpageshadow="2"
     inkscape:pageopacity="0.0"
     inkscape:pagecheckerboard="0"
     inkscape:deskcolor="#d1d1d1"
     inkscape:document-units="mm"
     showgrid="false"
     inkscape:zoom="1.0255754"
     inkscape:cx="561.63594"
     inkscape:cy="88.243146"
     inkscape:window-width="1920"
     inkscape:window-height="1001"
     inkscape:window-x="-9"
     inkscape:window-y="-9"
     inkscape:window-maximized="1"
     inkscape:current-layer="layer1" />
  <defs
     id="defs2">
    <linearGradient
       id="linearGradient40446">
      <stop
         style="stop-color:#192abe;stop-opacity:1;"
         offset="0"
         id="stop40442" />
      <stop
         style="stop-color:#56c2dd;stop-opacity:0;"
         offset="1"
         id="stop40444" />
    </linearGradient>
    <linearGradient
       id="linearGradient14551">
      <stop
         style="stop-color:#ffeeaa;stop-opacity:1;"
         offset="0"
         id="stop14547" />
      <stop
         style="stop-color:#ffeeaa;stop-opacity:0.90610331;"
         offset="1"
         id="stop14549" />
    </linearGradient>
    <linearGradient
       id="linearGradient14463">
      <stop
         style="stop-color:#decd87;stop-opacity:1;"
         offset="0"
         id="stop14459" />
      <stop
         style="stop-color:#decd87;stop-opacity:0;"
         offset="1"
         id="stop14461" />
    </linearGradient>
    <linearGradient
       id="linearGradient14422">
      <stop
         style="stop-color:#decd87;stop-opacity:1;"
         offset="0"
         id="stop14418" />
      <stop
         style="stop-color:#0d0b04;stop-opacity:0;"
         offset="1"
         id="stop14420" />
    </linearGradient>
    <linearGradient
       id="linearGradient1482">
      <stop
         style="stop-color:#ffe680;stop-opacity:1;"
         offset="0"
         id="stop1480" />
    </linearGradient>
    <linearGradient
       id="linearGradient1476">
      <stop
         style="stop-color:#decd87;stop-opacity:1;"
         offset="0"
         id="stop1474" />
    </linearGradient>
    <linearGradient
       id="linearGradient1464">
      <stop
         style="stop-color:#decd87;stop-opacity:1;"
         offset="0"
         id="stop1460" />
      <stop
         style="stop-color:#decd87;stop-opacity:0;"
         offset="1"
         id="stop1462" />
    </linearGradient>
    <clipPath
       clipPathUnits="userSpaceOnUse"
       id="clipPath12846">
      <g
         id="use12848"
         style="display:inline;fill:url(#radialGradient36855);fill-opacity:1" />
    </clipPath>
    <radialGradient
       xlink:href="#linearGradient14551"
       id="radialGradient36855"
       gradientUnits="userSpaceOnUse"
       cx="138.62286"
       cy="105.30132"
       fx="138.62286"
       fy="105.30132"
       r="49.606251" />
    <filter
       style="color-interpolation-filters:sRGB;"
       id="filter39160"
       x="-0.10490726"
       y="-0.072383806"
       width="1.2098235"
       height="1.1459157">
      <feColorMatrix
         result="result6"
         values="2 -1 0 0 0 0 2 -1 0 0 -1 0 2 0 0 0 0 0 1 0 "
         id="feColorMatrix39124" />
      <feTurbulence
         type="fractalNoise"
         baseFrequency="0.05"
         numOctaves="3"
         id="feTurbulence39126" />
      <feColorMatrix
         values="1 0 0 0 0 0 1 0 0 0 0 0 1 0 0 0 0 0 3 -1 "
         result="result0"
         id="feColorMatrix39128" />
      <feFlood
         result="result1"
         flood-color="rgb(146,144,165)"
         flood-opacity="1"
         id="feFlood39130" />
      <feBlend
         result="result2"
         in="result1"
         mode="multiply"
         in2="result6"
         id="feBlend39132" />
      <feComposite
         result="result3"
         operator="out"
         in2="result0"
         id="feComposite39134" />
      <feComposite
         k3="0.5"
         k1="1.5"
         result="fbSourceGraphic"
         operator="atop"
         in2="result6"
         id="feComposite39136" />
      <feGaussianBlur
         in="fbSourceGraphic"
         stdDeviation="2"
         result="result3"
         id="feGaussianBlur39138" />
      <feGaussianBlur
         result="result4"
         in="fbSourceGraphic"
         stdDeviation="0.01"
         id="feGaussianBlur39140" />
      <feBlend
         mode="darken"
         in2="result3"
         id="feBlend39142" />
      <feColorMatrix
         type="hueRotate"
         values="0"
         id="feColorMatrix39144" />
      <feComponentTransfer
         result="result1"
         id="feComponentTransfer39152">
        <feFuncR
           type="discrete"
           tableValues="0 0.2 0.4 0.6 0.8 1 1"
           id="feFuncR39146" />
        <feFuncG
           type="discrete"
           tableValues="0 0.2 0.4 0.6 0.8 1 1"
           id="feFuncG39148" />
        <feFuncB
           type="discrete"
           tableValues="0 0.2 0.4 0.6 0.8 1 1"
           id="feFuncB39150" />
      </feComponentTransfer>
      <feColorMatrix
         values="1"
         type="saturate"
         id="feColorMatrix39154" />
      <feGaussianBlur
         result="result5"
         stdDeviation="0.01"
         id="feGaussianBlur39156" />
      <feComposite
         operator="in"
         result="result2"
         in2="SourceGraphic"
         id="feComposite39158" />
    </filter>
    <filter
       style="color-interpolation-filters:sRGB;"
       id="filter39198"
       x="-0.14937907"
       y="-0.12086546"
       width="1.2987809"
       height="1.2417393">
      <feColorMatrix
         result="result6"
         values="2 -1 0 0 0 0 2 -1 0 0 -1 0 2 0 0 0 0 0 1 0 "
         id="feColorMatrix39162" />
      <feTurbulence
         type="fractalNoise"
         baseFrequency="0.05"
         numOctaves="3"
         id="feTurbulence39164" />
      <feColorMatrix
         values="1 0 0 0 0 0 1 0 0 0 0 0 1 0 0 0 0 0 3 -1 "
         result="result0"
         id="feColorMatrix39166" />
      <feFlood
         result="result1"
         flood-color="rgb(146,144,165)"
         flood-opacity="1"
         id="feFlood39168" />
      <feBlend
         result="result2"
         in="result1"
         mode="multiply"
         in2="result6"
         id="feBlend39170" />
      <feComposite
         result="result3"
         operator="out"
         in2="result0"
         id="feComposite39172" />
      <feComposite
         k3="0.5"
         k1="1.5"
         result="fbSourceGraphic"
         operator="atop"
         in2="result6"
         id="feComposite39174" />
      <feGaussianBlur
         in="fbSourceGraphic"
         stdDeviation="2"
         result="result3"
         id="feGaussianBlur39176" />
      <feGaussianBlur
         result="result4"
         in="fbSourceGraphic"
         stdDeviation="0.01"
         id="feGaussianBlur39178" />
      <feBlend
         mode="darken"
         in2="result3"
         id="feBlend39180" />
      <feColorMatrix
         type="hueRotate"
         values="0"
         id="feColorMatrix39182" />
      <feComponentTransfer
         result="result1"
         id="feComponentTransfer39190">
        <feFuncR
           type="discrete"
           tableValues="0 0.2 0.4 0.6 0.8 1 1"
           id="feFuncR39184" />
        <feFuncG
           type="discrete"
           tableValues="0 0.2 0.4 0.6 0.8 1 1"
           id="feFuncG39186" />
        <feFuncB
           type="discrete"
           tableValues="0 0.2 0.4 0.6 0.8 1 1"
           id="feFuncB39188" />
      </feComponentTransfer>
      <feColorMatrix
         values="1"
         type="saturate"
         id="feColorMatrix39192" />
      <feGaussianBlur
         result="result5"
         stdDeviation="0.01"
         id="feGaussianBlur39194" />
      <feComposite
         operator="in"
         result="result2"
         in2="SourceGraphic"
         id="feComposite39196" />
    </filter>
    <filter
       style="color-interpolation-filters:sRGB;"
       id="filter39236"
       x="-0.36562071"
       y="-0.98104945"
       width="1.731195"
       height="2.962061">
      <feColorMatrix
         result="result6"
         values="2 -1 0 0 0 0 2 -1 0 0 -1 0 2 0 0 0 0 0 1 0 "
         id="feColorMatrix39200" />
      <feTurbulence
         type="fractalNoise"
         baseFrequency="0.05"
         numOctaves="3"
         id="feTurbulence39202" />
      <feColorMatrix
         values="1 0 0 0 0 0 1 0 0 0 0 0 1 0 0 0 0 0 3 -1 "
         result="result0"
         id="feColorMatrix39204" />
      <feFlood
         result="result1"
         flood-color="rgb(146,144,165)"
         flood-opacity="1"
         id="feFlood39206" />
      <feBlend
         result="result2"
         in="result1"
         mode="multiply"
         in2="result6"
         id="feBlend39208" />
      <feComposite
         result="result3"
         operator="out"
         in2="result0"
         id="feComposite39210" />
      <feComposite
         k3="0.5"
         k1="1.5"
         result="fbSourceGraphic"
         operator="atop"
         in2="result6"
         id="feComposite39212" />
      <feGaussianBlur
         in="fbSourceGraphic"
         stdDeviation="2"
         result="result3"
         id="feGaussianBlur39214" />
      <feGaussianBlur
         result="result4"
         in="fbSourceGraphic"
         stdDeviation="0.01"
         id="feGaussianBlur39216" />
      <feBlend
         mode="darken"
         in2="result3"
         id="feBlend39218" />
      <feColorMatrix
         type="hueRotate"
         values="0"
         id="feColorMatrix39220" />
      <feComponentTransfer
         result="result1"
         id="feComponentTransfer39228">
        <feFuncR
           type="discrete"
           tableValues="0 0.2 0.4 0.6 0.8 1 1"
           id="feFuncR39222" />
        <feFuncG
           type="discrete"
           tableValues="0 0.2 0.4 0.6 0.8 1 1"
           id="feFuncG39224" />
        <feFuncB
           type="discrete"
           tableValues="0 0.2 0.4 0.6 0.8 1 1"
           id="feFuncB39226" />
      </feComponentTransfer>
      <feColorMatrix
         values="1"
         type="saturate"
         id="feColorMatrix39230" />
      <feGaussianBlur
         result="result5"
         stdDeviation="0.01"
         id="feGaussianBlur39232" />
      <feComposite
         operator="in"
         result="result2"
         in2="SourceGraphic"
         id="feComposite39234" />
    </filter>
    <filter
       style="color-interpolation-filters:sRGB;"
       id="filter39274"
       x="-0.52516158"
       y="-0.32303523"
       width="2.0503362"
       height="1.6460707">
      <feColorMatrix
         result="result6"
         values="2 -1 0 0 0 0 2 -1 0 0 -1 0 2 0 0 0 0 0 1 0 "
         id="feColorMatrix39238" />
      <feTurbulence
         type="fractalNoise"
         baseFrequency="0.05"
         numOctaves="3"
         id="feTurbulence39240" />
      <feColorMatrix
         values="1 0 0 0 0 0 1 0 0 0 0 0 1 0 0 0 0 0 3 -1 "
         result="result0"
         id="feColorMatrix39242" />
      <feFlood
         result="result1"
         flood-color="rgb(146,144,165)"
         flood-opacity="1"
         id="feFlood39244" />
      <feBlend
         result="result2"
         in="result1"
         mode="multiply"
         in2="result6"
         id="feBlend39246" />
      <feComposite
         result="result3"
         operator="out"
         in2="result0"
         id="feComposite39248" />
      <feComposite
         k3="0.5"
         k1="1.5"
         result="fbSourceGraphic"
         operator="atop"
         in2="result6"
         id="feComposite39250" />
      <feGaussianBlur
         in="fbSourceGraphic"
         stdDeviation="2"
         result="result3"
         id="feGaussianBlur39252" />
      <feGaussianBlur
         result="result4"
         in="fbSourceGraphic"
         stdDeviation="0.01"
         id="feGaussianBlur39254" />
      <feBlend
         mode="darken"
         in2="result3"
         id="feBlend39256" />
      <feColorMatrix
         type="hueRotate"
         values="0"
         id="feColorMatrix39258" />
      <feComponentTransfer
         result="result1"
         id="feComponentTransfer39266">
        <feFuncR
           type="discrete"
           tableValues="0 0.2 0.4 0.6 0.8 1 1"
           id="feFuncR39260" />
        <feFuncG
           type="discrete"
           tableValues="0 0.2 0.4 0.6 0.8 1 1"
           id="feFuncG39262" />
        <feFuncB
           type="discrete"
           tableValues="0 0.2 0.4 0.6 0.8 1 1"
           id="feFuncB39264" />
      </feComponentTransfer>
      <feColorMatrix
         values="1"
         type="saturate"
         id="feColorMatrix39268" />
      <feGaussianBlur
         result="result5"
         stdDeviation="0.01"
         id="feGaussianBlur39270" />
      <feComposite
         operator="in"
         result="result2"
         in2="SourceGraphic"
         id="feComposite39272" />
    </filter>
    <filter
       style="color-interpolation-filters:sRGB;"
       id="filter39312"
       x="-0.13345706"
       y="-0.17945114"
       width="1.2669399"
       height="1.3539673">
      <feColorMatrix
         result="result6"
         values="2 -1 0 0 0 0 2 -1 0 0 -1 0 2 0 0 0 0 0 1 0 "
         id="feColorMatrix39276" />
      <feTurbulence
         type="fractalNoise"
         baseFrequency="0.05"
         numOctaves="3"
         id="feTurbulence39278" />
      <feColorMatrix
         values="1 0 0 0 0 0 1 0 0 0 0 0 1 0 0 0 0 0 3 -1 "
         result="result0"
         id="feColorMatrix39280" />
      <feFlood
         result="result1"
         flood-color="rgb(146,144,165)"
         flood-opacity="1"
         id="feFlood39282" />
      <feBlend
         result="result2"
         in="result1"
         mode="multiply"
         in2="result6"
         id="feBlend39284" />
      <feComposite
         result="result3"
         operator="out"
         in2="result0"
         id="feComposite39286" />
      <feComposite
         k3="0.5"
         k1="1.5"
         result="fbSourceGraphic"
         operator="atop"
         in2="result6"
         id="feComposite39288" />
      <feGaussianBlur
         in="fbSourceGraphic"
         stdDeviation="2"
         result="result3"
         id="feGaussianBlur39290" />
      <feGaussianBlur
         result="result4"
         in="fbSourceGraphic"
         stdDeviation="0.01"
         id="feGaussianBlur39292" />
      <feBlend
         mode="darken"
         in2="result3"
         id="feBlend39294" />
      <feColorMatrix
         type="hueRotate"
         values="0"
         id="feColorMatrix39296" />
      <feComponentTransfer
         result="result1"
         id="feComponentTransfer39304">
        <feFuncR
           type="discrete"
           tableValues="0 0.2 0.4 0.6 0.8 1 1"
           id="feFuncR39298" />
        <feFuncG
           type="discrete"
           tableValues="0 0.2 0.4 0.6 0.8 1 1"
           id="feFuncG39300" />
        <feFuncB
           type="discrete"
           tableValues="0 0.2 0.4 0.6 0.8 1 1"
           id="feFuncB39302" />
      </feComponentTransfer>
      <feColorMatrix
         values="1"
         type="saturate"
         id="feColorMatrix39306" />
      <feGaussianBlur
         result="result5"
         stdDeviation="0.01"
         id="feGaussianBlur39308" />
      <feComposite
         operator="in"
         result="result2"
         in2="SourceGraphic"
         id="feComposite39310" />
    </filter>
    <filter
       style="color-interpolation-filters:sRGB;"
       id="filter39432"
       x="-0.89298898"
       y="-0.89298898"
       width="2.785978"
       height="2.785978">
      <feGaussianBlur
         in="SourceGraphic"
         stdDeviation="6"
         result="blur"
         id="feGaussianBlur39422" />
      <feDiffuseLighting
         diffuseConstant="1"
         surfaceScale="10"
         lighting-color="rgb(255,255,255)"
         result="diffuse"
         id="feDiffuseLighting39426">
        <feDistantLight
           elevation="25"
           azimuth="235"
           id="feDistantLight39424" />
      </feDiffuseLighting>
      <feComposite
         in="diffuse"
         in2="diffuse"
         operator="arithmetic"
         k1="1"
         result="composite1"
         id="feComposite39428" />
      <feComposite
         in="composite1"
         in2="SourceGraphic"
         k1="1"
         operator="arithmetic"
         k3="1"
         result="fbSourceGraphic"
         id="feComposite39430" />
      <feColorMatrix
         result="fbSourceGraphicAlpha"
         in="fbSourceGraphic"
         values="0 0 0 -1 0 0 0 0 -1 0 0 0 0 -1 0 0 0 0 1 0"
         id="feColorMatrix39504" />
      <feBlend
         in2="fbSourceGraphicAlpha"
         id="feBlend39506"
         mode="normal"
         result="blend"
         in="fbSourceGraphic" />
      <feGaussianBlur
         id="feGaussianBlur39508"
         in="blend"
         stdDeviation="5.15029"
         result="blur1" />
      <feColorMatrix
         id="feColorMatrix39510"
         values="1 0 0 0 0 0 1 0 0 0 0 0 1 0 0 0 0 0 50 0"
         result="color1" />
      <feComponentTransfer
         id="feComponentTransfer39512"
         result="component1">
        <feFuncR
           id="feFuncR39514"
           type="discrete"
           tableValues="0 0.3 0.3 0.3 0.3 0.6 0.6 0.6 0.6 1 1" />
        <feFuncG
           id="feFuncG39516"
           type="discrete"
           tableValues="0 0.3 0.3 0.3 0.3 0.6 0.6 0.6 0.6 1 1" />
        <feFuncB
           id="feFuncB39518"
           type="discrete"
           tableValues="0 0.3 0.3 0.3 0.3 0.6 0.6 0.6 0.6 1 1" />
      </feComponentTransfer>
      <feGaussianBlur
         id="feGaussianBlur39520"
         in="component1"
         stdDeviation="3"
         result="blur2" />
      <feColorMatrix
         id="feColorMatrix39522"
         values="1 0 0 0 0 0 1 0 0 0 0 0 1 0 0 0 0 0 50 0"
         result="color2" />
      <feComponentTransfer
         id="feComponentTransfer39524"
         in="color2"
         result="component2">
        <feFuncR
           id="feFuncR39526"
           type="table"
           tableValues="0 1 1 1 0 0 0 1 1 1 0 0 0 1 1 1 0 0 0 1" />
        <feFuncG
           id="feFuncG39528"
           type="table"
           tableValues="0 1 1 1 0 0 0 1 1 1 0 0 0 1 1 1 0 0 0 1" />
        <feFuncB
           id="feFuncB39530"
           type="table"
           tableValues="0 1 1 1 0 0 0 1 1 1 0 0 0 1 1 1 0 0 0 1" />
      </feComponentTransfer>
      <feComposite
         in2="blur2"
         id="feComposite39532"
         in="component2"
         k3="1"
         operator="arithmetic"
         k2="1"
         result="composite1" />
      <feComposite
         in2="fbSourceGraphic"
         id="feComposite39534"
         in="composite1"
         operator="in"
         result="fbSourceGraphic" />
      <feColorMatrix
         result="fbSourceGraphicAlpha"
         in="fbSourceGraphic"
         values="0 0 0 -1 0 0 0 0 -1 0 0 0 0 -1 0 0 0 0 1 0"
         id="feColorMatrix39536" />
      <feBlend
         in2="fbSourceGraphicAlpha"
         id="feBlend39538"
         mode="normal"
         result="blend"
         in="fbSourceGraphic" />
      <feGaussianBlur
         id="feGaussianBlur39540"
         in="blend"
         stdDeviation="5.15029"
         result="blur1" />
      <feColorMatrix
         id="feColorMatrix39542"
         values="1 0 0 0 0 0 1 0 0 0 0 0 1 0 0 0 0 0 50 0"
         result="color1" />
      <feComponentTransfer
         id="feComponentTransfer39544"
         result="component1">
        <feFuncR
           id="feFuncR39546"
           type="discrete"
           tableValues="0 0.3 0.3 0.3 0.3 0.6 0.6 0.6 0.6 1 1" />
        <feFuncG
           id="feFuncG39548"
           type="discrete"
           tableValues="0 0.3 0.3 0.3 0.3 0.6 0.6 0.6 0.6 1 1" />
        <feFuncB
           id="feFuncB39550"
           type="discrete"
           tableValues="0 0.3 0.3 0.3 0.3 0.6 0.6 0.6 0.6 1 1" />
      </feComponentTransfer>
      <feGaussianBlur
         id="feGaussianBlur39552"
         in="component1"
         stdDeviation="3"
         result="blur2" />
      <feColorMatrix
         id="feColorMatrix39554"
         values="1 0 0 0 0 0 1 0 0 0 0 0 1 0 0 0 0 0 50 0"
         result="color2" />
      <feComponentTransfer
         id="feComponentTransfer39556"
         in="color2"
         result="component2">
        <feFuncR
           id="feFuncR39558"
           type="table"
           tableValues="0 1 1 1 0 0 0 1 1 1 0 0 0 1 1 1 0 0 0 1" />
        <feFuncG
           id="feFuncG39560"
           type="table"
           tableValues="0 1 1 1 0 0 0 1 1 1 0 0 0 1 1 1 0 0 0 1" />
        <feFuncB
           id="feFuncB39562"
           type="table"
           tableValues="0 1 1 1 0 0 0 1 1 1 0 0 0 1 1 1 0 0 0 1" />
      </feComponentTransfer>
      <feComposite
         in2="blur2"
         id="feComposite39564"
         in="component2"
         k3="1"
         operator="arithmetic"
         k2="1"
         result="composite1" />
      <feComposite
         in2="fbSourceGraphic"
         id="feComposite39566"
         in="composite1"
         operator="in"
         result="fbSourceGraphic" />
      <feColorMatrix
         result="fbSourceGraphicAlpha"
         in="fbSourceGraphic"
         values="0 0 0 -1 0 0 0 0 -1 0 0 0 0 -1 0 0 0 0 1 0"
         id="feColorMatrix39568" />
      <feBlend
         in2="fbSourceGraphicAlpha"
         id="feBlend39570"
         mode="normal"
         result="blend"
         in="fbSourceGraphic" />
      <feGaussianBlur
         id="feGaussianBlur39572"
         in="blend"
         stdDeviation="8.45022"
         result="blur1" />
      <feColorMatrix
         id="feColorMatrix39574"
         values="1 0 0 0 0 0 1 0 0 0 0 0 1 0 0 0 0 0 50 0"
         result="color1" />
      <feComponentTransfer
         id="feComponentTransfer39576"
         result="component1">
        <feFuncR
           id="feFuncR39578"
           type="discrete"
           tableValues="0 0.3 0.3 0.3 0.3 0.6 0.6 0.6 0.6 1 1" />
        <feFuncG
           id="feFuncG39580"
           type="discrete"
           tableValues="0 0.3 0.3 0.3 0.3 0.6 0.6 0.6 0.6 1 1" />
        <feFuncB
           id="feFuncB39582"
           type="discrete"
           tableValues="0 0.3 0.3 0.3 0.3 0.6 0.6 0.6 0.6 1 1" />
      </feComponentTransfer>
      <feGaussianBlur
         id="feGaussianBlur39584"
         in="component1"
         stdDeviation="3"
         result="blur2" />
      <feColorMatrix
         id="feColorMatrix39586"
         values="1 0 0 0 0 0 1 0 0 0 0 0 1 0 0 0 0 0 50 0"
         result="color2" />
      <feComponentTransfer
         id="feComponentTransfer39588"
         in="color2"
         result="component2">
        <feFuncR
           id="feFuncR39590"
           type="table"
           tableValues="0 1 1 1 0 0 0 1 1 1 0 0 0 1 1 1 0 0 0 1" />
        <feFuncG
           id="feFuncG39592"
           type="table"
           tableValues="0 1 1 1 0 0 0 1 1 1 0 0 0 1 1 1 0 0 0 1" />
        <feFuncB
           id="feFuncB39594"
           type="table"
           tableValues="0 1 1 1 0 0 0 1 1 1 0 0 0 1 1 1 0 0 0 1" />
      </feComponentTransfer>
      <feComposite
         in2="blur2"
         id="feComposite39596"
         in="component2"
         k3="1"
         operator="arithmetic"
         k2="1"
         result="composite1" />
      <feComposite
         in2="fbSourceGraphic"
         id="feComposite39598"
         in="composite1"
         operator="in"
         result="fbSourceGraphic" />
      <feColorMatrix
         result="fbSourceGraphicAlpha"
         in="fbSourceGraphic"
         values="0 0 0 -1 0 0 0 0 -1 0 0 0 0 -1 0 0 0 0 1 0"
         id="feColorMatrix39646" />
      <feFlood
         id="feFlood39648"
         flood-opacity="1"
         flood-color="rgb(255,255,255)"
         result="flood"
         in="fbSourceGraphic" />
      <feColorMatrix
         id="feColorMatrix39650"
         in="fbSourceGraphic"
         values="1 0 0 0 0 0 1 0 0 0 0 0 1 0 0 -0.2125 -0.7154 -0.0721 1 0 "
         result="colormatrix1" />
      <feGaussianBlur
         id="feGaussianBlur39652"
         in="colormatrix1"
         stdDeviation="3 3"
         result="blur" />
      <feColorMatrix
         id="feColorMatrix39654"
         in="blur"
         values="1 0 0 0 0 0 1 0 0 0 0 0 1 0 0 0 0 0 6 -2 "
         result="colormatrix2" />
      <feBlend
         in2="flood"
         id="feBlend39656"
         in="colormatrix2"
         mode="normal"
         result="blend" />
      <feComposite
         in2="blend"
         id="feComposite39658"
         in="blend"
         operator="arithmetic"
         k2="1"
         result="composite1" />
      <feComposite
         in2="fbSourceGraphic"
         id="feComposite39660"
         operator="in" />
    </filter>
    <radialGradient
       xlink:href="#linearGradient40446"
       id="radialGradient40448"
       cx="-139.72403"
       cy="-107.55581"
       fx="-139.72403"
       fy="-107.55581"
       r="51.106251"
       gradientUnits="userSpaceOnUse"
       gradientTransform="matrix(1.0051974,0,0,1.0051975,140.19196,107.85655)" />
  </defs>
  <g
     inkscape:groupmode="layer"
     id="layer1"
     inkscape:label="Layer 1">
    <circle
       style="display:inline;fill:#0055d4;fill-opacity:1;stroke:url(#radialGradient40448);stroke-width:0.271842;stroke-dasharray:none;stroke-opacity:0.363322"
       id="path111"
       cy="-0.25831851"
       cx="-0.25832999"
       transform="scale(-1)"
       r="49.864079" />
    <path
       style="display:inline;fill:#55d400;stroke:#0000ff;stroke-width:0.181863"
       d="m 39.332472,-29.108355 c -0.951099,0.74906 -1.898581,1.502735 -2.853296,2.247178 -0.633076,0.493646 -1.301805,0.926936 -1.874375,1.499505 -0.220899,0.220897 -0.341417,0.528854 -0.562317,0.749751 -0.737772,0.737769 -0.380727,0.0078 -0.937187,0.74975 -0.373782,0.49837 -0.07079,0.224681 -0.187446,0.749754 -0.167647,0.754421 -0.317919,1.516087 -0.562306,2.249255 -0.357147,1.071436 -0.03576,-1.133124 -0.37488,0.562312 -0.04901,0.245063 0.06062,0.507297 0,0.749753 -0.228123,0.912509 -0.860552,1.06415 -1.686941,1.312067 -1.097477,0.329241 -2.241179,0.587935 -3.373878,0.74975 -0.185555,0.02651 -0.382094,-0.0515 -0.562316,0 -0.268665,0.07676 -0.484674,0.286517 -0.749752,0.374877 -0.960706,0.320234 -2.024895,0.283995 -2.999008,0.562314 -0.873753,0.249643 0.155009,0.109932 -0.749752,0.562314 -0.408438,0.204221 -1.331313,0.206683 -1.68694,0.562313 -0.09874,0.09879 -0.08867,0.276089 -0.187435,0.374877 -0.02558,0.0256 -3.249815,0.304921 -3.936195,0.562313 -0.576176,0.216065 -1.145151,0.458015 -1.68695,0.749753 -0.518969,0.279447 -0.990366,0.640193 -1.499503,0.937189 -0.241345,0.14079 -0.490314,0.271104 -0.749752,0.374878 -0.05805,0.02321 -0.143256,-0.04418 -0.187436,0 -0.153324,0.153324 -0.500762,1.06587 -0.562316,1.312064 -0.161976,0.647933 0.293538,1.6621925 0,2.2492558 -0.194875,0.389753 -0.356204,1.3680834 -0.187436,1.8743744 0.249914,0.7497523 0.06247,0.06247 0.562317,0.5623173 0.114765,0.114765 0.140204,0.421517 0.374871,0.5623163 0.35834,0.2150021 0.766294,0.3473151 1.124632,0.562317 0.267875,0.1607221 0.446679,0.486543 0.749753,0.5623063 0.227526,0.1818461 0.507297,-0.06062 0.749751,0 2.130043,0.532522 3.910376,0.01038 5.810571,-0.7497522 0.164082,-0.06565 0.227844,-0.2768431 0.374881,-0.3748711 0.637175,-0.4247833 0.100483,-0.02517 0.749751,-0.1874353 0.613864,-0.153468 1.061703,-0.671605 1.68694,-0.749753 0.973086,-0.1216371 1.437806,-0.1251621 2.436691,-0.3748803 0.259408,-0.06483 0.955486,0.169137 1.124633,0 0.04418,-0.04418 -0.06175,-0.1779321 0,-0.1874351 5.148931,-0.7921453 0.701411,0.03524 3.373878,-0.1874369 0.909047,-0.07573 2.055862,-0.3446291 2.999009,-0.18744 0.600721,0.100117 1.155569,0.484062 1.686939,0.749747 0.243431,0.4140373 0.641398,0.06915 0.937187,0.1874453 0.209166,0.08364 0.3486,0.303639 0.562317,0.374872 0.177818,0.05929 0.375806,-0.0187 0.562316,0 0.879199,0.08795 1.774539,0.132138 2.624127,0.374881 0.06268,0.01788 0.929348,1.8665256 1.312068,2.2492467 0.159294,0.1592932 0.403023,0.2155873 0.562317,0.3748803 0.03452,0.03452 0.152893,0.527775 0.187435,0.562317 0.377625,0.377624 0.730868,0.36544 1.124623,0.562307 0.360148,0.1800779 0.04819,0.488382 0.374881,0.7497619 1.874375,1.49949326 0,-0.2811579 1.124623,0.56230637 0.626428,0.4698159 0.86015,0.77183192 1.686939,0.93718689 0.466107,0.09319 1.063161,-0.28759897 1.499505,-0.37486997 0.200791,-0.04017 0.776577,-0.21426192 0.937197,-0.37488092 0.226776,-0.22677607 -0.07747,-1.56461327 0,-1.87437537 0.162715,-0.6508709 0.870219,-3.6952519 0.562307,-4.3110782 -0.28792,-0.575848 -0.105714,0.3100193 -0.562307,-0.3748701 -0.342578,-0.513868 0.3078,-2.5708444 0,-3.1864471 -0.390036,-0.780072 0.01295,0.200379 -0.374881,-0.187438 -0.160404,-0.160407 -0.128543,-1.381717 -0.187435,-1.499502 -0.217622,-0.435239 -0.247654,-0.990624 -0.374881,-1.499504 -0.298369,-1.193493 0.203648,-2.591712 -0.374872,-3.748761 -0.369918,-0.739825 -1.332679,-0.957802 -1.874374,-1.499504 -0.393982,-0.393979 -0.570105,-1.166785 -1.124634,-1.499504 -0.410266,-0.24616 -1.118098,-0.276261 -1.499503,-0.562313 -0.428061,-0.321043 -0.195573,-0.766023 -0.374881,-1.124628 -0.266928,-0.533869 -0.986155,-0.847687 -1.124623,-1.124626 -0.299899,-0.599804 0.299898,-1.649457 0,-2.249256 -0.139773,-0.279547 -0.419349,-0.463826 -0.562316,-0.749753 -0.05589,-0.111766 0.08836,-0.286518 0,-0.374873 -0.03545,-0.03543 -0.703333,-0.363275 -0.749742,-0.374877 -0.192429,-0.04811 -0.605542,-0.04323 -0.749762,-0.187438 -0.199149,-0.199158 0.13555,-1.490277 0.229169,-1.872303 z"
       id="path38205" />
    <path
       style="display:inline;fill:#55d400;stroke:#0000ff;stroke-width:0.0484936"
       d="m -10.368574,39.782405 c -0.344212,-0.0785 -0.740032,-0.166969 -1.060254,-0.160445 -0.39396,0.0082 -0.544655,0.172168 -0.849013,0.229633 -0.04408,0.0082 -0.119192,-0.0041 -0.164678,0.0031 -0.419101,0.06977 -0.60741,0.269651 -1.026502,0.339444 -0.14268,0.02374 -0.324752,0.03 -0.476002,0.05518 -0.179616,0.0299 -0.260331,0.115556 -0.439937,0.145465 -0.02887,0.0051 -0.08107,-0.01346 -0.115762,-0.01284 -0.04911,10e-4 -0.04593,0.03411 -0.09782,0.03226 -0.339927,-0.01151 -1.202696,-0.168377 -1.492618,-0.27299 -0.194803,-0.07028 -0.451661,-0.239999 -0.669211,-0.289758 -0.02723,-0.0062 -0.02168,0.01921 -0.04881,0.01613 -0.182606,-0.02024 -0.357362,-0.150006 -0.517366,-0.186644 -0.111046,-0.02538 -0.260393,-0.05959 -0.365428,-0.08364 -0.154825,-0.03535 -0.311521,-0.0021 -0.44517,-0.0062 -0.103164,-0.0031 -0.25014,-0.04038 -0.347417,-0.03843 -0.04665,10e-4 -0.419791,-0.0031 -0.445168,-0.0062 -0.02733,-0.0031 -0.03956,-0.02599 -0.06699,-0.02898 -0.184641,-0.02045 -0.346884,0.0072 -0.494043,0.01028 -0.286471,0.0062 -0.496006,0.232468 -0.782098,0.258616 -0.03185,0.0031 -0.08107,-0.01346 -0.115822,-0.01284 -0.0072,6.2e-5 -0.875645,0.274881 -0.879847,0.290939 -0.03874,0.149041 0.874186,0.688486 1.166163,0.840886 0.410082,0.214015 1.004855,0.392686 1.405351,0.60848 0.339341,0.182862 0.723378,0.431698 1.173745,0.582865 0.0561,0.0188 0.127505,0.0225 0.182689,0.04182 0.172774,0.06052 0.289264,0.14639 0.468451,0.202827 0.09227,0.02908 0.203647,0.02764 0.298532,0.05456 0.154238,0.04367 0.50822,0.204007 0.602293,0.260784 0.103165,0.06226 0.105826,0.129221 0.187939,0.193363 0.05815,0.04531 0.166599,0.08651 0.218782,0.132078 0.130402,0.113747 0.175753,0.231676 0.357888,0.341592 0.03534,0.02137 0.101818,0.03617 0.133844,0.05795 0.139012,0.09432 0.386933,0.372827 0.442836,0.415712 0.07295,0.04408 0.145906,0.08806 0.218782,0.132077 0.0062,0.015 5.2e-5,0.02949 0.01808,0.04511 0.08723,0.07603 1.019967,0.441613 1.204588,0.521548 0.08919,0.03863 0.158492,0.103832 0.267677,0.115905 0.0031,3.29e-4 0.604576,-0.118484 0.836211,-0.1232 0.04911,-10e-4 0.04326,-0.03833 0.09771,-0.03226 0.06103,0.0072 0.124792,0.03976 0.18276,0.04182 0.07788,0.0031 0.06483,-0.05754 0.146647,-0.0485 0.02733,0.0031 0.03935,0.02445 0.06699,0.02898 0.11721,0.01911 0.230218,0.01942 0.347397,0.03843 0.02754,0.0041 0.04244,0.02949 0.06699,0.02897 0.04911,-10e-4 0.0487,-0.03134 0.09782,-0.03236 0.06946,-10e-4 0.158277,0.02312 0.231605,0.02558 0.08199,0.0031 0.133074,-0.02065 0.213563,-0.01952 0.127258,0.0021 0.279227,0.02939 0.396294,0.0223 0.5176017,-0.03123 1.4702621,-0.435078 1.9243783,-0.585239 0.03822,-0.01264 0.7340323,-0.239978 0.7332103,-0.242454 -0.01408,-0.03535 -0.206011,-0.154136 -0.236834,-0.177213 -0.1276381,-0.09555 -0.1933743,-0.203535 -0.3398463,-0.296446 -0.2947102,-0.186952 -0.8967579,-0.335767 -1.2045879,-0.521558 -0.2827907,-0.170709 -0.3815387,-0.3741 -0.5947317,-0.518804 -0.03206,-0.02178 -0.08929,-0.03863 -0.1338337,-0.05795 -0.07295,-0.04398 -0.161996,-0.08672 -0.218772,-0.132077 -0.03719,-0.0298 -0.34003,-0.362377 -0.375929,-0.386738 -0.03206,-0.02178 -0.101819,-0.03617 -0.133844,-0.05795 -0.05024,-0.03411 -0.129159,-0.11268 -0.169929,-0.148229 -0.20412,-0.178065 1.1736727,-0.386276 1.1370647,-0.478201 -0.01479,-0.03689 -0.2102847,-0.170708 -0.2548857,-0.222348 -0.110398,-0.127802 -0.116707,-0.227237 -0.309002,-0.357753 -0.03206,-0.02178 -0.125316,-0.03668 -0.133844,-0.05795 -0.01192,-0.03 0.109751,-0.0021 0.09771,-0.03226 -0.0041,-0.01068 -0.06268,-0.01829 -0.06689,-0.02897 -0.01274,-0.03185 0.121402,-0.02394 0.146635,-0.0485 0.131523,-0.02435 -0.09525,-0.05363 -0.08508,-0.07408 0.0092,-0.01829 0.08857,-0.01408 0.09771,-0.03237 0.0062,-0.01336 -0.303844,-0.243543 -0.388721,-0.280295"
       id="path38104" />
    <path
       style="display:inline;fill:#55d400;stroke:#0000ff;stroke-width:0.0980737"
       d="m 21.139035,-24.531109 c 0.632594,-0.304101 1.389465,-0.498123 1.89779,-0.912314 0.117344,-0.09556 0.298717,-1.909173 0.301234,-1.983569 0.02404,-0.71076 -0.0062,-1.427028 -0.02497,-2.141877 -0.0041,-0.1498 0.09186,-0.318629 -0.02435,-0.450284 -0.02281,-0.02579 -0.09206,10e-4 -0.114775,-0.02435 -0.08466,-0.09607 -0.20896,-0.387723 -0.253879,-0.499015 -0.125944,-0.312074 0.240646,-0.78413 -0.01253,-1.07094 -0.02281,-0.02579 -0.09206,0.001 -0.114775,-0.02435 -0.02281,-0.02579 0.03627,-0.05764 0.01808,-0.08518 -0.102539,-0.156067 -0.320448,-0.273986 -0.386728,-0.438202 -0.01171,-0.02908 0.04089,-0.05939 0.01808,-0.08518 -0.02281,-0.02589 -0.08333,-0.0041 -0.114775,-0.02435 -0.351178,-0.222409 -0.619606,-0.105199 -0.749125,-0.42613 -0.09525,-0.235982 0.07809,-0.483276 0.0299,-0.705829 -0.125204,-0.579168 -0.05107,0.285022 -0.139115,-0.474666 -0.0072,-0.05908 0.04901,-0.111355 0.03617,-0.170361 -0.146091,-0.675858 0.0041,0.141325 -0.17527,-0.304286 -0.103073,-0.25538 0.0092,-0.554528 -0.06679,-0.815394 -0.03853,-0.13138 -0.128656,-0.257508 -0.157188,-0.389472 -0.138457,-0.640525 0.355206,0.490088 -0.02435,-0.450285 -0.06833,-0.169281 -0.185555,-0.329756 -0.25387,-0.499016 -0.0597,-0.148024 0.03545,-0.302272 -0.02435,-0.450296 -0.01171,-0.02908 -0.09206,10e-4 -0.114765,-0.02435 -0.02281,-0.02579 0.03432,-0.05713 0.01808,-0.08518 -0.118803,-0.206216 -0.317479,-0.266589 -0.386738,-0.438202 -0.0041,-0.0092 -0.802183,-0.749649 -0.906323,-0.8156 -0.118701,-0.07521 -0.480944,-0.122183 -0.555752,-0.20708 -0.02281,-0.02579 0.04089,-0.05939 0.01808,-0.08518 -0.140225,-0.158903 -0.371841,-0.147643 -0.537669,-0.292203 -0.114508,-0.09987 -0.144159,-0.257877 -0.290046,-0.328655 -0.273411,-0.132633 -0.585176,-0.213318 -0.900066,-0.280183 -0.153026,-0.03247 -0.367925,0.0062 -0.459069,-0.0975 -0.03226,-0.03658 -0.06155,-0.138078 -0.09668,-0.109597 -0.400639,0.325132 -0.746649,0.881211 -0.76655,1.350637 -0.0113,0.266836 0.224628,0.701462 0.278209,0.949311 -0.01202,0.05682 -0.02415,0.113573 -0.03617,0.17036 0.03833,0.0082 0.103093,-0.0051 0.114774,0.02435 0.02353,0.05815 -0.07459,0.115875 -0.03617,0.17037 0.09196,0.130546 0.931321,0.603013 0.942478,0.645231 0.612456,0.310573 -0.05754,0.467875 -0.0299,0.70585 0.08538,0.734628 -0.112341,1.390525 -0.0898,2.117498 0.0092,0.299725 0.05014,0.601762 0.0487,0.900561 -5.25e-4,0.117221 -0.09782,0.222728 -0.07234,0.34074 0.0524,0.242167 0.153848,0.191493 0.139104,0.474665 -0.05137,0.986567 -0.363794,2.918992 -0.69915,3.857606 -0.03103,0.08682 -0.121197,0.150294 -0.169024,0.231164 -0.122203,0.206524 -0.114878,0.541016 -0.162787,0.766652 -0.0051,0.0226 -0.03391,0.252534 -0.05425,0.255544 -0.147652,0.02168 -0.306063,-0.06494 -0.459079,-0.09751 -0.463775,-0.09843 -0.822834,-0.154537 -1.280568,-0.182832 -0.15956,-0.01028 -0.571039,-0.119142 -0.477173,-0.01223 0.02281,0.02579 0.08333,0.0041 0.114775,0.02435 0.161935,0.102542 0.05754,0.170853 0.175271,0.304286 0.09114,0.103279 0.321526,0.03072 0.45908,0.09751 0.03432,0.01675 -0.04952,0.06525 -0.01808,0.08518 0.06309,0.03997 0.153037,0.03247 0.22954,0.0487 0.0262,0.06494 0.01829,0.142116 0.0786,0.194731 0.414787,0.361719 1.248605,0.538665 1.763957,0.730642 0.372405,0.138734 1.027817,0.865922 1.347319,0.998266 0.07891,0.03257 1.898962,0.427682 1.951084,0.414275 0.427712,-0.110102 0.836416,-0.25124 1.254614,-0.376865"
       id="path38106" />
    <path
       style="display:inline;fill:#55d400;stroke:#0000ff;stroke-width:0.181863"
       d="M 43.461975,9.4848163 C 42.87539,9.3428086 42.288779,9.2010036 41.702185,9.0589916 c -0.2567,-0.0215 -0.518694,-0.0081 -0.770131,-0.0645 -0.08602,-0.01906 -0.126764,-0.1545227 -0.215133,-0.1548497 -0.739547,-0.0026 -1.480418,0.3644517 -2.219963,0.3618147 -0.257571,-0.0015 -0.512706,-0.074 -0.77013,-0.0645 -0.358429,0.01338 -1.089795,0.304253 -1.479991,0.241215 -0.33222,-0.05313 -0.651083,-0.18007 -0.98527,-0.219251 -0.719755,-0.08443 -1.721771,0.6048467 -2.40495,0.3919607 -1.038448,-0.3236037 -3.270237,0.343032 -4.470101,0.5385667 -3.246296,0.529084 -2.623441,0.483374 -6.044594,1.364979 -1.495839,0.385495 -3.69507,0.743573 -4.964769,0.999083 -2.07475,0.417449 2.090438,-0.340755 0,0 -0.40002,0.06512 -3.690063,0.746558 -8.3248742,1.356776 -0.102599,0.0135 0.14275,0.602981 0.12052,0.740009 -0.07067,0.438221 -0.07565,0.701121 -0.004,1.14014 0.05046,0.309201 -0.195513,0.466487 -0.2493773,0.800286 -0.03482,0.216336 0.0794,1.037277 0.1808883,1.109978 0.113307,0.08158 0.286641,0.04366 0.400143,0.124742 0.152109,0.109552 0.06034,0.369984 0.0904,0.554995 0.103519,0.635081 0.333955,1.396188 0.33165,2.034972 -0.003,0.849219 -0.337225,2.035866 0.08228,2.835258 0.129863,0.247404 0.360742,0.432285 0.490606,0.679688 0.058,0.110625 -0.01316,0.268661 0.06035,0.369985 0.798635,1.106478 0.125264,-0.399023 0.675594,0.649531 0.058,0.110626 -0.01316,0.268661 0.06035,0.369985 0.286835,0.397403 0.169981,-0.07063 0.585105,0.09461 0.246284,0.09804 0.401005,0.362049 0.645452,0.464533 0.632783,0.265333 1.688729,0.393866 2.370727,0.56317 0.819525,0.203411 1.72884,0.399409 2.555715,0.533023 0.450472,0.07283 1.08979,-0.07595 1.540274,0.128748 0.170295,0.07729 0.814091,1.499269 0.856512,1.759515 0.07524,0.461724 0.356214,0.806298 0.581051,1.23467 0.382012,0.727891 0.462873,3.312052 0.478343,4.100088 0.0048,0.249852 0.331496,0.605869 0.120619,0.739986 -1.041876,0.662617 -2.016721,0.678169 -3.0545,1.067552 -0.261607,0.0981 -0.440309,0.346458 -0.679674,0.490589 -0.604996,0.364373 -1.358499,0.533742 -1.944525,0.886676 -0.954127,0.574609 -1.814893,1.457104 -2.688582,2.147371 -0.387619,0.306233 -2.281951,1.405973 -2.378908,1.717094 -0.0557,0.178972 0.08346,0.367691 0.09039,0.555005 0.01402,0.37978 -0.01156,0.760148 -0.004,1.140129 0.01714,0.868999 0.590075,1.922039 0.452257,2.774958 -0.01407,0.08726 -0.169051,0.12791 -0.154852,0.215142 0.01427,0.08718 0.127085,0.162827 0.215141,0.154853 0.808925,-0.07319 1.598213,-0.297856 2.404953,-0.391972 0.747313,-0.08699 1.58396,0.172789 2.250098,-0.177218 0.53962,-0.283206 0.784248,-1.298145 1.238762,-1.721186 0.919748,-0.856071 -0.226109,0.258073 0.709827,-0.305588 0.193002,-0.116235 0.295224,-0.355767 0.494687,-0.460452 0.165992,-0.08722 0.389041,-0.0034 0.554992,-0.09049 0.371133,-0.194754 0.668901,-0.506291 1.019547,-0.735891 0.215506,-0.141117 0.521252,-0.130114 0.709833,-0.305618 1.2501,-1.163563 -0.512555,0.163174 0.649528,-0.675585 0.610656,-0.440784 1.249293,-0.852836 1.884202,-1.256656 1.451972,-0.923405 2.474805,-2.303833 3.587522,-3.623248 0.145264,-0.172206 0.123429,-0.452902 0.279585,-0.615297 1.149363,-1.195457 2.816352,-2.098039 3.802657,-3.468426 0.03656,-0.05071 -0.04879,-0.125338 -0.03024,-0.184963 0.05254,-0.168699 0.236606,-0.26939 0.309678,-0.430298 0.509133,-1.120572 0.0034,-1.095442 1.518334,-2.336467 0.5657,-0.46345 1.287881,-0.694372 1.914365,-1.071644 1.236729,-0.744811 2.332765,-1.766532 3.583405,-2.483147 0.10847,-0.06216 0.278553,0.02492 0.369987,-0.06036 0.102355,-0.09513 0.04366,-0.286651 0.124738,-0.400122 0.184674,-0.256684 0.627802,-0.312924 0.864674,-0.520753 0.338688,-0.29715 0.63222,-0.646261 0.989392,-0.920888 1.023028,-0.786645 1.493731,-0.884142 1.948603,-2.026795 0.514239,-1.291771 -0.157052,-3.827639 -0.104245,-5.300519 0.01579,-0.428565 -0.226466,-0.866388 -0.211009,-1.294983 0.04131,-1.15079 1.116898,-1.326425 1.548472,-2.15149 0.448556,-0.857533 -0.217495,-1.771681 -0.05215,-2.650243 0.05375,-0.285767 0.149077,-0.5621007 0.223659,-0.8431117 z"
       id="path38110" />
    <path
       style="display:inline;fill:#55d400;stroke:#40ff3f;stroke-width:0.158982;stroke-opacity:1"
       d="m -17.996773,-37.037455 c -0.06987,2.863055 -4.796317,3.325351 -6.174009,5.498895 -0.215649,0.340211 -8.499536,3.074384 -8.762797,3.386368 -0.143296,0.169814 -0.401141,0.252917 -0.571593,0.40473 -0.08991,0.08002 -0.09391,0.217313 -0.200165,0.282629 -0.609661,0.374973 -1.899435,0.833025 -2.448086,1.310669 -0.643968,0.560634 -0.770487,1.490447 -1.229731,2.138948 -0.245332,0.346433 -0.781063,0.6467 -0.981506,1.117715 -0.373682,0.878098 -0.141787,2.450371 -0.754283,3.211424 -0.278074,0.345511 -0.792998,0.730958 -0.981516,1.117715 -0.48,0.984774 0.737516,-0.639018 -0.228995,0.725791 -0.418602,0.591112 -1.289894,0.706453 -1.5435,1.374723 -1.014575,2.673451 0.146917,0.25544 -0.315526,2.055272 -0.101737,0.395975 -0.342266,0.759175 -0.438759,1.156156 -0.24019,0.988159 0.105685,2.127206 -0.201909,3.102142 -0.304653,0.9655855 -0.135466,1.9633508 -0.373211,2.9415872 -0.07119,0.2928402 -0.191047,0.5768753 -0.23862,0.8735273 -0.07057,0.440083 0.03867,1.2843594 -0.115375,1.7726587 -0.03347,0.106084 -0.160493,0.178117 -0.20015,0.2826179 -0.235002,0.6192473 0.157946,1.4678904 -0.134603,2.0680884 -0.03128,0.06422 -0.148342,0.07531 -0.190532,0.1349029 -0.179023,0.2528001 -0.03846,0.5908991 -0.05769,0.8863291 -0.03747,0.57599227 0.08799,1.35915646 -0.124991,1.92038343 -0.01578,0.04141 -0.456794,0.82795097 -0.238609,0.87348697 0.353757,0.07388 0.723657,0.05137 1.085516,0.07686 0.180925,0.01264 0.408017,0.133895 0.542786,0.03812 0.08986,-0.0636 -0.04043,-0.2111687 0.01918,-0.2954387 0.354438,-0.50051727 0.26544,-1.28632124 0.30591,-1.90757253 0.02574,-0.3952549 0.02793,-0.57600197 0.238616,-0.87351717 0.340219,-0.480419 -0.187927,-1.88093 0.153828,-2.3635281 0.0422,-0.05959 0.148338,-0.07531 0.190537,-0.1349022 0.174147,-0.245907 -0.09018,-0.9457871 0.277015,-1.4643974 0.199258,-0.2813639 -0.198251,-1.1278383 0.08653,-1.3294943 0.107538,-0.07624 2.742158,-0.6323463 3.295007,-0.3602913 0.08282,0.04069 -0.07079,1.0875333 -0.07696,1.1817586 -0.06565,1.0087491 0.100997,3.0767557 -0.430899,3.8279257 -0.288609,0.4075529 0.06944,1.16327527 -0.105771,1.62492319 -0.03966,0.104511 -0.150698,0.181199 -0.200136,0.282648 -0.170309,0.34941127 0.206748,1.40363451 -0.10577,1.62492351 -0.04485,0.03165 -0.136016,-0.04449 -0.180913,-0.01274 -0.111013,0.0787 -0.123605,1.2712684 -0.08655,1.3295034 0.952501,1.4961427 0.164194,0.233228 0.694832,0.4943823 0.353271,0.173873 0.438168,0.5673507 0.675588,0.7898527 0.458172,0.4293557 0.536606,0.1910107 0.866146,0.6549184 0.06144,0.08651 0.119398,0.8955657 0.12322,0.8991617 0.374533,0.3509727 1.957722,0.9093844 2.103731,1.1877691 0.123375,0.23518 0.363949,0.5277637 0.494691,0.7770097 0.129363,0.2466147 -0.186995,0.6397437 -0.05764,0.8863284 0.188216,0.358843 0.881922,0.5102557 1.227962,0.6805537 0.201922,0.09936 0.231594,0.3260357 0.333002,0.4687887 0.176924,0.249061 0.610236,0.25839 0.875757,0.5072147 0.04038,0.03791 -0.04993,0.109905 -0.01028,0.147695 0.04028,0.03771 0.12842,-0.01326 0.180902,0.01274 0.359232,0.176782 0.697393,0.495657 1.047071,0.667742 0.18726,0.09217 0.174572,-0.06658 0.361853,0.02538 0.109052,0.05374 0.831136,0.465388 0.875737,0.507215 0.04028,0.03791 -0.05004,0.109875 -0.01028,0.147704 0.121135,0.113501 0.374163,-0.02045 0.542774,0.03812 0.07953,0.02774 0.0971,0.123981 0.171315,0.160516 0.292942,0.144222 1.102749,0.314037 1.247216,0.385125 0.0525,0.02579 -0.0336,0.101822 -0.01028,0.147704 0.06802,0.129981 0.274449,0.191083 0.342609,0.321074 0.07316,0.13965 -0.03956,0.607503 -0.04809,0.738595 l -0.288408,4.431625 c -0.0082,0.124927 0.06072,0.520676 -0.03853,0.59089 -0.045,0.03165 -0.15881,-0.05826 -0.180931,-0.01274 -0.201532,0.413421 -0.07634,1.17244 -0.105734,1.624934 -0.02959,0.444737 -0.541254,1.236017 -0.286634,1.612122 0.621106,0.917521 1.260224,0.90808 1.70344,1.753023 0.04809,0.09196 -0.05137,0.199334 -0.01963,0.29542 0.04531,0.13594 0.274438,0.191093 0.3426,0.321053 0.161708,0.308263 -0.361854,-0.02538 -0.02836,0.443216 0.147766,0.208025 1.048623,0.669222 1.218356,0.828269 0.04038,0.03791 -0.04994,0.109905 -0.01028,0.147705 0.04048,0.03781 0.140533,-0.02507 0.180922,0.01274 0.245609,0.230156 0.0041,0.611407 0.123209,0.899121 0.01952,0.04737 0.140534,-0.02507 0.180913,0.01274 0.335159,0.314108 -0.528905,3.154243 -0.230754,3.545307 0.950832,1.246991 4.315023,1.492733 5.893446,1.604518 0.746055,0.05281 2.397969,0.384323 3.085211,0.07007 0.356387,-0.162992 0.853328,-0.476905 0.962298,-0.822299 0.102641,-0.325286 0.01212,-0.862678 0.07686,-1.181748 0.110214,-0.541881 0.348414,-1.05897 0.467608,-1.599309 0.114539,-0.519493 0.0712,-1.094808 0.105723,-1.624924 0.03206,-0.493037 0.305981,-0.96989 0.45798,-1.451595 0.30444,-0.964887 0.30853,-1.947385 0.373217,-2.941605 0.0021,-0.05189 0.193538,-1.324069 0.09617,-1.477208 -0.345712,-0.543022 -1.498805,-0.67927 -1.922807,-1.174947 -0.40625,-0.474944 -0.139393,-1.156104 -0.256079,-1.650568 -0.0785,-0.332859 -1.204814,-2.346123 -1.474434,-2.478828 -0.333219,-0.163979 -0.229653,0.736232 -0.228985,0.725803 0.02271,-0.35427 0.159684,-0.832173 0.07686,-1.181769 -0.05137,-0.218248 -0.28454,-0.396827 -0.323378,-0.616493 -0.111107,-0.62797 -0.04562,-1.048541 -0.436979,-1.66337 -0.684029,-1.074433 -1.76364,-1.831952 -2.540743,-2.8511297 -0.460098,-0.6033927 -0.494013,-1.3854361 -0.96051,-1.9972438 -0.137656,-0.180511 -0.371287,-0.303567 -0.513925,-0.4815707 -0.0336,-0.04192 0.04654,-0.107562 0.01027,-0.147725 -0.492646,-0.5374417 -1.444402,-1.1464344 -1.884371,-1.7658351 -0.259664,-0.3655727 -0.05281,-3.7724815 0.0787,-4.0012715 0.146965,-0.255565 0.484345,-0.41959627 0.590839,-0.70015827 0.115976,-0.30545797 0.04603,-0.70652824 0.0673,-1.03406424 0.05107,-0.78332919 -0.05014,-0.11258702 0.238581,-0.87349719 0.155873,-0.410677 -0.04521,-0.912273 0.08651,-1.3294941 0.0336,-0.1060929 0.166662,-0.1765339 0.200146,-0.2826279 0.224968,-0.7130311 0.505653,-2.1831926 0.554159,-2.9287837 0.0072,-0.1112823 -0.06771,-0.8952063 0.238581,-0.8735273 0.180922,0.01284 -0.101202,0.305303 -0.02836,0.443196 0.06802,0.12997 0.211591,0.227844 0.34261,0.321074 0.146472,0.1042643 0.405386,0.06689 0.533138,0.1861403 0.04038,0.03791 -0.05004,0.1098861 -0.01028,0.1476951 0.04038,0.03781 0.12841,-0.01305 0.180912,0.01284 0.270258,0.133002 0.252339,0.785773 0.304152,0.9119432 0.183224,0.446268 0.636775,0.8015451 0.827684,1.2458204 0.103154,0.2401419 0.0092,0.517119 0.132827,0.751396 0.05384,0.1027839 0.298358,0.07049 0.352247,0.173348 0.111898,0.213379 0.01161,1.107948 0.275281,1.355119 0.04038,0.03802 0.120417,0.01253 0.180933,0.01274 0.787295,0.0092 1.574262,0.0062 2.361566,0.0188 0.181158,0.0031 0.408036,0.1337932 0.542794,0.03812 0.270227,-0.19134 0.525319,-4.6041346 0.488609,-4.7142547 -0.469016,-1.4063366 -1.595517,-1.2226726 -2.779311,-1.9776246 -0.359367,-0.01058 -0.07131,-0.2236534 -0.161698,-0.3082524 -0.04038,-0.03781 -0.140554,0.02507 -0.180911,-0.01284 -0.122955,-0.115155 0.182997,-2.0256958 0.153797,-2.3635268 -0.01757,-0.203628 -0.04305,-0.414242 -0.142465,-0.603702 -0.161678,-0.308251 -0.347408,-0.247202 -0.513904,-0.48159 -0.203412,-0.286358 -0.476577,-0.908574 -0.646763,-1.233007 -0.02404,-0.04593 0.04994,-0.109896 0.01028,-0.147705 -0.09792,-0.09186 -0.45164,-0.11831 -0.52354,-0.333876 -0.08004,-0.240307 0.105569,-0.494598 0.04819,-0.738594 -0.01613,-0.06894 -0.114189,-0.107019 -0.171294,-0.160528 -0.05384,-0.102748 -0.13594,-0.199116 -0.161709,-0.308251 -0.03463,-0.14642 0.07706,-0.298965 0.02836,-0.443205 -0.28302,-0.84859 -0.255628,-1.65768 -0.198399,-2.536879 0.01962,-0.307485 -0.0062,-1.664571 0.11533,-1.772652 1.279253,-1.139356 3.406945,-0.983817 5.171527,-1.266231 0.139885,-0.02239 1.609861,-0.689722 1.685953,-0.771032 0.08066,-0.08633 0.09967,-0.211533 0.200134,-0.282635 0.702573,-0.497466 2.686369,-0.275221 3.4759337,-0.34748 0.133629,-0.01227 0.236639,-0.119432 0.371439,-0.122102 0.6986264,-0.01383 1.62441,0.11502 2.3519477,0.166535 2.6690557,0.188986 5.1683162,0.455023 7.80835658,0.107687 0.43186172,-0.05682 0.75011172,-0.294227 1.11434742,-0.366297 0.116471,-0.02305 0.2475,0.05427 0.3618428,0.0256 0.6379057,0.846118 0.5438017,-0.392016 0.5716247,-0.404732 0.164308,-0.07515 0.393715,-0.02665 0.5523707,-0.109296 0.272251,-0.141798 0.216307,-0.531053 0.228964,-0.725798 0.03987,-0.612182 0.3450347,-1.613783 0.144212,-2.215806 -0.191992,-0.575749 -1.1022494,-1.523524 -1.6937762,-1.90077 -0.4591717,-0.292824 -1.10131942,-0.313312 -1.59943099,-0.558454 -0.44024677,-0.216654 -1.25555944,-0.792287 -1.56096511,-1.149336 -0.322346,-0.376832 -0.137007,-0.940397 -0.275321,-1.355103 -0.1634747,-0.490152 -9.7658303,-2.725697 -10.1585483,-3.093728"
       id="path38100" />
  </g>
</svg>
